<?xml version="1.0" encoding="UTF-8" standalone="no"?> <!-- Created with Vectornator for iOS (http://vectornator.io/) --><!DOCTYPE svg PUBLIC "-//W3C//DTD SVG 1.1//EN" "http://www.w3.org/Graphics/SVG/1.1/DTD/svg11.dtd">
<svg height="100%" style="fill-rule:evenodd;clip-rule:evenodd;stroke-linecap:round;stroke-linejoin:round;" xmlns:xlink="http://www.w3.org/1999/xlink" xmlns="http://www.w3.org/2000/svg" xml:space="preserve" width="100%" xmlns:vectornator="http://vectornator.io" version="1.1" viewBox="0 0 932.15 932.15">
<metadata>
<vectornator:setting key="Units" value="Points"/>
<vectornator:setting key="GuidesVisible" value="1"/>
<vectornator:setting key="RulersVisible" value="1"/>
<vectornator:setting key="SnapToGuides" value="1"/>
<vectornator:setting key="DynamicGuides" value="1"/>
</metadata>
<defs/>
<g id="Untitled" vectornator:layerName="Untitled">
<g opacity="1">
<path d="M466.075+161.525C260.475+161.525+83.275+282.725+1.875+457.625C-0.625+462.925-0.625+469.125+1.875+474.525C83.275+649.424+260.476+770.625+466.075+770.625C671.674+770.625+848.875+649.425+930.275+474.525C932.775+469.225+932.775+463.025+930.275+457.625C848.875+282.725+671.675+161.525+466.075+161.525ZM466.075+676.226C349.975+676.226+255.975+582.125+255.975+466.125C255.975+350.025+350.075+256.025+466.075+256.025C582.175+256.025+676.175+350.125+676.175+466.125C676.175+582.125+582.075+676.226+466.075+676.226Z" opacity="1" fill="#888888"/>
<path d="M331.575+466.025C331.575+391.743+391.793+331.525+466.075+331.525C540.357+331.525+600.575+391.743+600.575+466.025C600.575+540.307+540.357+600.525+466.075+600.525C391.793+600.525+331.575+540.307+331.575+466.025Z" opacity="1" fill="#888888"/>
</g>
</g>
</svg>
